<svg xmlns="http://www.w3.org/2000/svg" width="375" viewBox="0 0 375 150" height="150" version="1.0"><defs><clipPath id="a"><path d="M 18.203125 0 L 356.789062 0 L 356.789062 150 L 18.203125 150 Z M 18.203125 0"/></clipPath></defs><path fill="#FFF" d="M-37.5 -15H412.5V165H-37.5z"/><path fill="#FFF" d="M-37.5 -15H412.5V165H-37.5z"/><path fill="#FFF" d="M-37.5 -15H412.5V165H-37.5z"/><g clip-path="url(#a)"><path fill="#FF7336" d="M 347.179688 83.671875 L 251.105469 83.671875 L 251.105469 -0.09375 L 356.789062 -0.09375 L 356.789062 73.195312 C 356.789062 78.980469 352.496094 83.671875 347.179688 83.671875 Z M 18.203125 94.136719 L 18.203125 -0.09375 L 123.746094 -0.09375 L 123.746094 104.613281 L 27.804688 104.613281 C 22.5 104.613281 18.203125 99.921875 18.203125 94.136719 Z M 245.097656 139.515625 L 245.097656 -0.09375 L 129.90625 -0.09375 L 129.90625 139.515625 C 129.90625 145.300781 134.589844 149.992188 140.375 149.992188 L 234.621094 149.992188 C 240.40625 149.992188 245.097656 145.300781 245.097656 139.515625"/></g></svg>