<svg xmlns="http://www.w3.org/2000/svg" width="375" viewBox="0 0 375 150" height="150" version="1.0"><defs><clipPath id="a"><path d="M 18.203125 0 L 356.789062 0 L 356.789062 150 L 18.203125 150 Z M 18.203125 0"/></clipPath></defs><path fill="#FFF" d="M-37.5 -15H412.5V165H-37.5z"/><path fill="#FFF" d="M-37.5 -15H412.5V165H-37.5z"/><path fill="#FFF" d="M-37.5 -15H412.5V165H-37.5z"/><g clip-path="url(#a)"><path fill="#FF7336" d="M 347.179688 66.328125 L 251.105469 66.328125 L 251.105469 150.09375 L 356.789062 150.09375 L 356.789062 76.804688 C 356.789062 71.019531 352.496094 66.328125 347.179688 66.328125 Z M 18.203125 55.863281 L 18.203125 150.09375 L 123.746094 150.09375 L 123.746094 45.386719 L 27.804688 45.386719 C 22.5 45.386719 18.203125 50.078125 18.203125 55.863281 Z M 245.097656 10.484375 L 245.097656 150.09375 L 129.90625 150.09375 L 129.90625 10.484375 C 129.90625 4.699219 134.589844 0.0078125 140.375 0.0078125 L 234.621094 0.0078125 C 240.40625 0.0078125 245.097656 4.699219 245.097656 10.484375"/></g></svg>